<svg width="6" height="10" viewBox="0 0 6 10" fill="none" xmlns="http://www.w3.org/2000/svg">
<path d="M5.19391 9.47329C5.2564 9.41131 5.306 9.33758 5.33984 9.25634C5.37369 9.1751 5.39111 9.08796 5.39111 8.99996C5.39111 8.91195 5.37369 8.82481 5.33984 8.74357C5.306 8.66233 5.2564 8.5886 5.19391 8.52662L2.14058 5.47329C2.0781 5.41132 2.0285 5.33758 1.99465 5.25634C1.96081 5.1751 1.94338 5.08797 1.94338 4.99996C1.94338 4.91195 1.96081 4.82481 1.99465 4.74357C2.0285 4.66233 2.0781 4.5886 2.14058 4.52662L5.19391 1.47329C5.2564 1.41132 5.306 1.33758 5.33984 1.25634C5.37369 1.1751 5.39111 1.08797 5.39111 0.999959C5.39111 0.911951 5.37369 0.824814 5.33984 0.743574C5.306 0.662335 5.2564 0.588601 5.19391 0.526625C5.06901 0.402458 4.90004 0.332764 4.72391 0.332764C4.54779 0.332764 4.37882 0.402458 4.25391 0.526625L1.19391 3.58662C0.81938 3.96163 0.609007 4.46996 0.609007 4.99996C0.609007 5.52996 0.81938 6.03829 1.19391 6.41329L4.25391 9.47329C4.37882 9.59746 4.54779 9.66715 4.72391 9.66715C4.90004 9.66715 5.06901 9.59746 5.19391 9.47329Z" fill="#12141B"/>
</svg>
