<svg xmlns="http://www.w3.org/2000/svg" version="1.1" xmlns:xlink="http://www.w3.org/1999/xlink" width="512" height="512" x="0" y="0" viewBox="0 0 128 128" style="enable-background:new 0 0 512 512" xml:space="preserve" class=""><g><path d="M93 82.012V63.931l-27.475 8.526a11.984 11.984 0 0 1-7.05 0L31 63.93v18.082a2 2 0 0 0 1.095 1.783 65.408 65.408 0 0 0 59.81 0A2 2 0 0 0 93 82.012z" fill="#000000" opacity="1" data-original="#000000" class=""></path><path d="M14 52.993a2 2 0 0 0 1.407 1.91L59.66 68.636a7.987 7.987 0 0 0 4.68 0L106 55.708v9.588a5.73 5.73 0 0 0-3.226 2.394 5.028 5.028 0 0 0-.25 4.934s3.181 6.937 3.185 6.944a2.575 2.575 0 0 0 4.58-.001l.015-.032 3.156-6.876a5.047 5.047 0 0 0-.234-4.967A5.733 5.733 0 0 0 110 65.297V53.492a2.722 2.722 0 0 0-.308-1.551 2.154 2.154 0 0 0-1.205-.89c-.177-.056-44.076-13.679-44.147-13.7a7.87 7.87 0 0 0-4.68 0L15.407 51.082A2 2 0 0 0 14 52.993zm93.999 15.998a2.116 2.116 0 0 1 1.84.828 1.094 1.094 0 0 1 .002 1.137l-1.842 4.012-1.855-4.045a1.072 1.072 0 0 1 .017-1.106 2.112 2.112 0 0 1 1.838-.826zM29.442 14.506a1.963 1.963 0 0 0 1.114-.33 60.488 60.488 0 0 1 3.325-2.082 2 2 0 1 0-2.012-3.457 64.908 64.908 0 0 0-3.545 2.22 2.01 2.01 0 0 0 1.118 3.65zM5.162 75.802a59.824 59.824 0 0 1-.641-3.87 2 2 0 0 0-3.966.524c.183 1.38.413 2.77.684 4.13a2.03 2.03 0 0 0 2.353 1.57 2 2 0 0 0 1.57-2.354zM5.894 42.227a2.02 2.02 0 0 0 2.611-1.086 60.01 60.01 0 0 1 1.617-3.581 2 2 0 0 0-3.59-1.765 64.243 64.243 0 0 0-1.725 3.82 2 2 0 0 0 1.087 2.612zM51.739 5.21a1.905 1.905 0 0 0 .395-.038 60.012 60.012 0 0 1 3.87-.645 2 2 0 1 0-.527-3.964 63.85 63.85 0 0 0-4.13.688 2 2 0 0 0-1.567 2.354 2.04 2.04 0 0 0 1.959 1.605zM11.266 31.315a2.024 2.024 0 0 0 2.773-.556 59.896 59.896 0 0 1 2.283-3.194 2 2 0 0 0-3.176-2.431 64.329 64.329 0 0 0-2.436 3.408 2 2 0 0 0 .556 2.773zM20.07 22.23a1.995 1.995 0 0 0 1.417-.572 60.86 60.86 0 0 1 2.859-2.69 2 2 0 1 0-2.645-3 64.307 64.307 0 0 0-3.048 2.868 2.006 2.006 0 0 0 1.417 3.395zM2 66.106a2.061 2.061 0 0 0 2-2.114c0-1.268.04-2.55.12-3.813a2 2 0 0 0-3.993-.25A65.069 65.069 0 0 0 0 63.992a2.034 2.034 0 0 0 2 2.114zM40.13 8.756a1.938 1.938 0 0 0 .77-.15 59.512 59.512 0 0 1 3.662-1.389 2 2 0 1 0-1.294-3.784c-1.311.448-2.626.947-3.91 1.483a2.013 2.013 0 0 0 .772 3.84zM108.994 24.302a2.07 2.07 0 0 0 2.823.175 2 2 0 0 0 .175-2.823 64.658 64.658 0 0 0-2.872-3.045 2 2 0 1 0-2.82 2.837 60.811 60.811 0 0 1 2.694 2.856zM63.828 3.994c1.307.08 2.621.04 3.93.121a2 2 0 1 0 .246-3.992A64.998 64.998 0 0 0 63.984 0a2.042 2.042 0 0 0-2.156 2 2.054 2.054 0 0 0 2 1.994zM122.817 52.073c.256 1.273.475 2.575.648 3.869a2.03 2.03 0 0 0 2.248 1.717 2 2 0 0 0 1.717-2.248 64.357 64.357 0 0 0-.692-4.128 2 2 0 0 0-3.921.79zM119.372 40.843c.502 1.2.97 2.432 1.393 3.662a2.026 2.026 0 0 0 2.54 1.242 2 2 0 0 0 1.243-2.541 64.016 64.016 0 0 0-1.487-3.907 2 2 0 0 0-3.69 1.544zM75.54 5.107c1.282.25 2.568.545 3.822.877a2 2 0 1 0 1.024-3.867 63.637 63.637 0 0 0-4.082-.935 2 2 0 1 0-.765 3.925zM86.804 8.483a59.44 59.44 0 0 1 3.581 1.613 2.029 2.029 0 0 0 2.677-.914 2 2 0 0 0-.914-2.676 63.294 63.294 0 0 0-3.824-1.721 2 2 0 1 0-1.52 3.698zM97.19 14.006a60.022 60.022 0 0 1 3.197 2.28 2.026 2.026 0 0 0 2.803-.374 2 2 0 0 0-.375-2.804 64.393 64.393 0 0 0-3.41-2.432 2 2 0 1 0-2.215 3.33zM2.772 53.978a2.019 2.019 0 0 0 2.347-1.579c.25-1.277.546-2.563.879-3.823a2 2 0 0 0-3.866-1.024 63.73 63.73 0 0 0-.94 4.08 2 2 0 0 0 1.58 2.346zM116.675 96.766a2 2 0 0 0-2.775.55 60.49 60.49 0 0 1-2.29 3.19 2 2 0 0 0 3.172 2.437 64.516 64.516 0 0 0 2.442-3.402 2 2 0 0 0-.55-2.775zM106.435 106.404c-.92.92-1.884 1.824-2.864 2.685a2 2 0 0 0-.184 2.821 2.028 2.028 0 0 0 2.822.184 64.638 64.638 0 0 0 3.055-2.862 2 2 0 0 0-2.83-2.828zM115.877 33.829a2.026 2.026 0 0 0 2.735.72 1.999 1.999 0 0 0 .72-2.735 64.504 64.504 0 0 0-2.223-3.542 2 2 0 0 0-3.317 2.234 61.035 61.035 0 0 1 2.085 3.323zM97.352 113.87a60.613 60.613 0 0 1-3.328 2.075 2 2 0 0 0-.728 2.732 2.032 2.032 0 0 0 2.733.728 64.491 64.491 0 0 0 3.55-2.213 2 2 0 1 0-2.227-3.323zM86.998 119.42c-1.203.499-2.436.964-3.665 1.382a2 2 0 0 0-1.25 2.537 2.023 2.023 0 0 0 2.538 1.25 63.926 63.926 0 0 0 3.911-1.476 2 2 0 1 0-1.534-3.694zM125.987 61.763A2 2 0 0 0 124 63.775v.217c0 1.305-.042 2.626-.126 3.923a2 2 0 0 0 1.867 2.124 2.023 2.023 0 0 0 2.124-1.866c.09-1.383.135-2.79.135-4.168v-.255a2.003 2.003 0 0 0-2.013-1.987zM119.452 86.946a59.798 59.798 0 0 1-1.623 3.578 2 2 0 0 0 3.587 1.77c.617-1.25 1.2-2.534 1.731-3.817a2 2 0 0 0-3.695-1.531zM125.837 80.546c.36-1.344.678-2.716.947-4.078a2 2 0 0 0-3.924-.775 60.151 60.151 0 0 1-.887 3.821 2.041 2.041 0 0 0 1.934 2.517 2 2 0 0 0 1.93-1.485zM37.514 117.838a2 2 0 1 0-1.768 3.587 64.012 64.012 0 0 0 3.82 1.729 2 2 0 1 0 1.528-3.696 60.09 60.09 0 0 1-3.58-1.62zM16.11 103.419a2 2 0 0 0-.18 2.822 64.774 64.774 0 0 0 2.866 3.05 2.05 2.05 0 0 0 2.828-.002 1.999 1.999 0 0 0-.003-2.828 60.728 60.728 0 0 1-2.687-2.862 2 2 0 0 0-2.823-.18zM27.525 111.63a2 2 0 1 0-2.434 3.173 64.609 64.609 0 0 0 3.405 2.439 2.028 2.028 0 0 0 2.774-.552 2 2 0 0 0-.552-2.774 60.381 60.381 0 0 1-3.193-2.287zM10.826 99.615a2.027 2.027 0 0 0 2.775.546 2 2 0 0 0 .546-2.775 60.017 60.017 0 0 1-2.078-3.326 2 2 0 0 0-3.46 2.007 64.168 64.168 0 0 0 2.217 3.548zM4.894 88.576a2.029 2.029 0 0 0 2.615 1.077 2 2 0 0 0 1.077-2.615A59.556 59.556 0 0 1 7.2 83.374a2 2 0 0 0-3.786 1.292c.448 1.315.946 2.63 1.48 3.91zM75.757 122.833a60.07 60.07 0 0 1-3.87.638 2 2 0 0 0-1.723 2.242 2.055 2.055 0 0 0 2.242 1.723c1.38-.18 2.77-.41 4.132-.68a2 2 0 1 0-.78-3.923zM60.132 123.862a2 2 0 1 0-.254 3.991 40.12 40.12 0 0 0 4.289.127 1.93 1.93 0 0 0 1.313-.625 2.02 2.02 0 0 0-1.48-3.37 61 61 0 0 1-3.868-.123zM48.529 121.972a2 2 0 1 0-1.029 3.864c1.34.357 2.713.675 4.08.943a2 2 0 1 0 .772-3.924 60.073 60.073 0 0 1-3.823-.883z" fill="#000000" opacity="1" data-original="#000000" class=""></path></g></svg>