<svg width="32" height="32" viewBox="0 0 32 32" fill="none" xmlns="http://www.w3.org/2000/svg">
<circle cx="16" cy="16" r="16" fill="#12141B"/>
<path d="M24.3466 15.9659C24.3466 17.8693 23.9858 19.4886 23.2642 20.8239C22.5483 22.1591 21.571 23.179 20.3324 23.8835C19.0994 24.5824 17.7131 24.9318 16.1733 24.9318C14.6222 24.9318 13.2301 24.5795 11.9972 23.875C10.7642 23.1705 9.78977 22.1506 9.07386 20.8153C8.35795 19.4801 8 17.8636 8 15.9659C8 14.0625 8.35795 12.4432 9.07386 11.108C9.78977 9.77273 10.7642 8.75568 11.9972 8.05682C13.2301 7.35227 14.6222 7 16.1733 7C17.7131 7 19.0994 7.35227 20.3324 8.05682C21.571 8.75568 22.5483 9.77273 23.2642 11.108C23.9858 12.4432 24.3466 14.0625 24.3466 15.9659ZM20.6051 15.9659C20.6051 14.733 20.4205 13.6932 20.0511 12.8466C19.6875 12 19.1733 11.358 18.5085 10.9205C17.8438 10.483 17.0653 10.2642 16.1733 10.2642C15.2813 10.2642 14.5028 10.483 13.8381 10.9205C13.1733 11.358 12.6563 12 12.2869 12.8466C11.9233 13.6932 11.7415 14.733 11.7415 15.9659C11.7415 17.1989 11.9233 18.2386 12.2869 19.0852C12.6563 19.9318 13.1733 20.5739 13.8381 21.0114C14.5028 21.4489 15.2813 21.6676 16.1733 21.6676C17.0653 21.6676 17.8438 21.4489 18.5085 21.0114C19.1733 20.5739 19.6875 19.9318 20.0511 19.0852C20.4205 18.2386 20.6051 17.1989 20.6051 15.9659Z" fill="white"/>
</svg>
