<svg width="134" height="32" viewBox="0 0 134 32" fill="none" xmlns="http://www.w3.org/2000/svg">
<circle cx="16" cy="16" r="16" fill="#FF8926"/>
<path d="M24.3466 15.9659C24.3466 17.8693 23.9858 19.4886 23.2642 20.8239C22.5483 22.1591 21.571 23.179 20.3324 23.8835C19.0994 24.5824 17.7131 24.9318 16.1733 24.9318C14.6222 24.9318 13.2301 24.5795 11.9972 23.875C10.7642 23.1705 9.78977 22.1506 9.07386 20.8153C8.35795 19.4801 8 17.8636 8 15.9659C8 14.0625 8.35795 12.4432 9.07386 11.108C9.78977 9.77273 10.7642 8.75568 11.9972 8.05682C13.2301 7.35227 14.6222 7 16.1733 7C17.7131 7 19.0994 7.35227 20.3324 8.05682C21.571 8.75568 22.5483 9.77273 23.2642 11.108C23.9858 12.4432 24.3466 14.0625 24.3466 15.9659ZM20.6051 15.9659C20.6051 14.733 20.4205 13.6932 20.0511 12.8466C19.6875 12 19.1733 11.358 18.5085 10.9205C17.8438 10.483 17.0653 10.2642 16.1733 10.2642C15.2813 10.2642 14.5028 10.483 13.8381 10.9205C13.1733 11.358 12.6562 12 12.2869 12.8466C11.9233 13.6932 11.7415 14.733 11.7415 15.9659C11.7415 17.1989 11.9233 18.2386 12.2869 19.0852C12.6562 19.9318 13.1733 20.5739 13.8381 21.0114C14.5028 21.4489 15.2813 21.6676 16.1733 21.6676C17.0653 21.6676 17.8438 21.4489 18.5085 21.0114C19.1733 20.5739 19.6875 19.9318 20.0511 19.0852C20.4205 18.2386 20.6051 17.1989 20.6051 15.9659Z" fill="white"/>
<path d="M47.0977 24.7812C45.8789 24.7812 44.8125 24.5117 43.8984 23.9727C42.9844 23.4258 42.2695 22.668 41.7539 21.6992C41.2461 20.7305 40.9922 19.6055 40.9922 18.3242C40.9922 17.043 41.2461 15.918 41.7539 14.9492C42.2695 13.9727 42.9844 13.2109 43.8984 12.6641C44.8125 12.1172 45.8789 11.8438 47.0977 11.8438C48.3086 11.8438 49.3711 12.1172 50.2852 12.6641C51.207 13.2109 51.9219 13.9727 52.4297 14.9492C52.9453 15.918 53.2031 17.043 53.2031 18.3242C53.2031 19.6055 52.9453 20.7305 52.4297 21.6992C51.9219 22.668 51.207 23.4258 50.2852 23.9727C49.3711 24.5117 48.3086 24.7812 47.0977 24.7812ZM47.0977 22.3086C48.043 22.3086 48.7969 21.9531 49.3594 21.2422C49.9219 20.5312 50.2031 19.5586 50.2031 18.3242C50.2031 17.0898 49.9219 16.1133 49.3594 15.3945C48.7969 14.6758 48.043 14.3164 47.0977 14.3164C46.1445 14.3164 45.3867 14.6758 44.8242 15.3945C44.2617 16.1055 43.9805 17.082 43.9805 18.3242C43.9805 19.5586 44.2617 20.5312 44.8242 21.2422C45.3867 21.9531 46.1445 22.3086 47.0977 22.3086ZM58.207 17.5039V24.5H55.2539V12.125H58.1602V14.0234C59.0195 12.5938 60.2852 11.8789 61.957 11.8789C63.2539 11.8789 64.3125 12.2969 65.1328 13.1328C65.9609 13.9688 66.375 15.1797 66.375 16.7656V24.5H63.4102V17.2344C63.4102 16.3281 63.1914 15.6406 62.7539 15.1719C62.3164 14.7031 61.7031 14.4688 60.9141 14.4688C60.1406 14.4688 59.4961 14.7109 58.9805 15.1953C58.4648 15.6797 58.207 16.4492 58.207 17.5039ZM71.9648 7.03906V24.5H69.0117V7.03906H71.9648ZM74.5898 24.5V12.125H77.543V24.5H74.5898ZM76.0664 10.2852C75.5586 10.2852 75.1367 10.125 74.8008 9.80469C74.4648 9.47656 74.2969 9.07422 74.2969 8.59766C74.2969 8.12109 74.4648 7.72266 74.8008 7.40234C75.1367 7.08203 75.5586 6.92188 76.0664 6.92188C76.5664 6.92188 76.9844 7.08203 77.3203 7.40234C77.6562 7.72266 77.8242 8.12109 77.8242 8.59766C77.8242 9.07422 77.6562 9.47656 77.3203 9.80469C76.9844 10.125 76.5664 10.2852 76.0664 10.2852ZM83.1211 17.5039V24.5H80.168V12.125H83.0742V14.0234C83.9336 12.5938 85.1992 11.8789 86.8711 11.8789C88.168 11.8789 89.2266 12.2969 90.0469 13.1328C90.875 13.9688 91.2891 15.1797 91.2891 16.7656V24.5H88.3242V17.2344C88.3242 16.3281 88.1055 15.6406 87.668 15.1719C87.2305 14.7031 86.6172 14.4688 85.8281 14.4688C85.0547 14.4688 84.4102 14.7109 83.8945 15.1953C83.3789 15.6797 83.1211 16.4492 83.1211 17.5039Z" fill="#0E0F14"/>
<path d="M99.3867 24.7812C98.1523 24.7812 97.082 24.5039 96.1758 23.9492C95.2695 23.3945 94.5703 22.6328 94.0781 21.6641C93.5938 20.6875 93.3516 19.5742 93.3516 18.3242C93.3516 17.0664 93.6016 15.9531 94.1016 14.9844C94.6094 14.0078 95.3086 13.2422 96.1992 12.6875C97.0898 12.125 98.1133 11.8438 99.2695 11.8438C100.457 11.8438 101.496 12.1172 102.387 12.6641C103.277 13.2109 103.969 13.9688 104.461 14.9375C104.953 15.8984 105.199 17.0117 105.199 18.2773V19.0859H96.2461C96.2852 20.0938 96.582 20.9062 97.1367 21.5234C97.6914 22.1406 98.4648 22.4492 99.457 22.4492C100.199 22.4492 100.812 22.2891 101.297 21.9688C101.781 21.6406 102.109 21.2109 102.281 20.6797H105.047C104.891 21.4844 104.547 22.1953 104.016 22.8125C103.492 23.4297 102.832 23.9141 102.035 24.2656C101.238 24.6094 100.355 24.7812 99.3867 24.7812ZM96.2695 17.0469H102.363C102.27 16.1641 101.949 15.4688 101.402 14.9609C100.863 14.4453 100.168 14.1875 99.3164 14.1875C98.457 14.1875 97.7578 14.4453 97.2188 14.9609C96.6875 15.4688 96.3711 16.1641 96.2695 17.0469ZM111.996 24.7461C110.918 24.7461 109.977 24.4766 109.172 23.9375C108.367 23.3984 107.742 22.6484 107.297 21.6875C106.859 20.7188 106.641 19.5898 106.641 18.3008C106.641 17.0352 106.863 15.9219 107.309 14.9609C107.754 13.9922 108.379 13.2383 109.184 12.6992C109.988 12.1523 110.918 11.8789 111.973 11.8789C112.777 11.8789 113.5 12.043 114.141 12.3711C114.781 12.6992 115.301 13.2031 115.699 13.8828H115.723V7.03906H118.676V24.5H115.77V22.6133H115.746C115.355 23.332 114.832 23.8672 114.176 24.2188C113.527 24.5703 112.801 24.7461 111.996 24.7461ZM112.688 22.2734C113.656 22.2734 114.43 21.9141 115.008 21.1953C115.594 20.4688 115.887 19.5039 115.887 18.3008C115.887 17.0977 115.594 16.1367 115.008 15.418C114.43 14.6914 113.656 14.3281 112.688 14.3281C111.773 14.3281 111.035 14.6719 110.473 15.3594C109.91 16.0469 109.629 17.0273 109.629 18.3008C109.629 19.582 109.91 20.5664 110.473 21.2539C111.035 21.9336 111.773 22.2734 112.688 22.2734ZM125.707 24.7461C124.41 24.7461 123.352 24.3281 122.531 23.4922C121.711 22.6562 121.301 21.4453 121.301 19.8594V12.125H124.254V19.3906C124.254 20.2969 124.473 20.9844 124.91 21.4531C125.348 21.9219 125.961 22.1562 126.75 22.1562C127.531 22.1562 128.176 21.9141 128.684 21.4297C129.199 20.9453 129.457 20.1758 129.457 19.1211V12.125H132.422V24.5H129.516V22.6016C128.648 24.0312 127.379 24.7461 125.707 24.7461Z" fill="#FF8926"/>
</svg>
