<svg xmlns="http://www.w3.org/2000/svg" version="1.1" xmlns:xlink="http://www.w3.org/1999/xlink" width="512" height="512" x="0" y="0" viewBox="0 0 24 24" style="enable-background:new 0 0 512 512" xml:space="preserve" class=""><g><path d="M16.2 22H7.8C6 22 5 22 4.2 21.6s-1.4-1-1.7-1.7C2 19 2 18 2 16.2V7.8C2 6 2 5 2.4 4.2s1-1.4 1.7-1.7C5 2 6 2 7.8 2H16c.6 0 1 .4 1 1s-.4 1-1 1H7.8c-1.5 0-2.3 0-2.7.2s-.7.5-.9.9S4 6.3 4 7.8v8.4c0 1.5 0 2.3.2 2.7s.5.7.9.9 1.2.2 2.7.2h8.4c1.5 0 2.3 0 2.7-.2s.7-.5.9-.9.2-1.2.2-2.7V12c0-.6.4-1 1-1s1 .4 1 1v4.2c0 1.8 0 2.8-.4 3.6s-1 1.4-1.7 1.7c-.9.5-1.9.5-3.7.5zM12 15c-.3 0-.5-.1-.7-.3l-3-3c-.4-.4-.4-1 0-1.4s1-.4 1.4 0l2.3 2.3 9.3-9.3c.4-.4 1-.4 1.4 0s.4 1 0 1.4l-10 10c-.2.2-.4.3-.7.3z" fill="#000000" opacity="1" data-original="#000000"></path></g></svg>