<svg width="16" height="16" viewBox="0 0 16 16" fill="none" xmlns="http://www.w3.org/2000/svg">
                            <path d="M7.66683 14.4997C3.90016 14.4997 0.833496 11.433 0.833496 7.66634C0.833496 3.89967 3.90016 0.833008 7.66683 0.833008C11.4335 0.833008 14.5002 3.89967 14.5002 7.66634C14.5002 11.433 11.4335 14.4997 7.66683 14.4997ZM7.66683 1.83301C4.44683 1.83301 1.8335 4.45301 1.8335 7.66634C1.8335 10.8797 4.44683 13.4997 7.66683 13.4997C10.8868 13.4997 13.5002 10.8797 13.5002 7.66634C13.5002 4.45301 10.8868 1.83301 7.66683 1.83301Z" fill="#0E0F14"></path>
                            <path d="M14.6666 15.1663C14.5399 15.1663 14.4132 15.1196 14.3132 15.0196L12 13C11.8067 12.8067 11.8067 12.4867 12 12.2933C12.1933 12.1 12.5133 12.1 12.7067 12.2933L15.0199 14.313C15.2132 14.5063 15.2132 14.8263 15.0199 15.0196C14.9199 15.1196 14.7932 15.1663 14.6666 15.1663Z" fill="#0E0F14"></path>
                        </svg>