<svg width="133" height="36" viewBox="0 0 133 36" fill="none" xmlns="http://www.w3.org/2000/svg">
<path d="M40.0395 29V26.3512L50.573 11.5713H40.0189V7.89176H56.1799V10.5406L45.6361 25.3205H56.2005V29H40.0395ZM63.247 9.69802C63.247 10.057 63.1762 10.3924 63.0344 10.7042C62.9022 11.016 62.7179 11.29 62.4817 11.5262C62.2455 11.7529 61.9668 11.9372 61.6456 12.0789C61.3338 12.2111 60.9984 12.2773 60.6394 12.2773C60.2804 12.2773 59.9403 12.2111 59.619 12.0789C59.3073 11.9372 59.0333 11.7529 58.7971 11.5262C58.5703 11.29 58.3861 11.016 58.2444 10.7042C58.1121 10.3924 58.046 10.057 58.046 9.69802C58.046 9.34845 58.1121 9.01777 58.2444 8.70599C58.3861 8.38476 58.5703 8.11078 58.7971 7.88403C59.0333 7.64783 59.3073 7.4636 59.619 7.33133C59.9403 7.18961 60.2804 7.11875 60.6394 7.11875C60.9984 7.11875 61.3338 7.18961 61.6456 7.33133C61.9668 7.4636 62.2455 7.64783 62.4817 7.88403C62.7179 8.11078 62.9022 8.38476 63.0344 8.70599C63.1762 9.01777 63.247 9.34845 63.247 9.69802ZM62.5809 29H58.6837V13.822H62.5809V29ZM78.2272 16.8406L75.3928 19.6891C75.2511 19.2923 75.0574 18.938 74.8118 18.6262C74.5661 18.305 74.2874 18.0358 73.9756 17.8185C73.6733 17.6012 73.3426 17.4358 72.9836 17.3224C72.6246 17.2091 72.2561 17.1524 71.8782 17.1524C71.3491 17.1524 70.8484 17.261 70.376 17.4783C69.9131 17.6956 69.5068 18.0027 69.1572 18.3995C68.8171 18.7869 68.5478 19.2498 68.3494 19.7883C68.151 20.3269 68.0518 20.9221 68.0518 21.574C68.0518 22.1031 68.151 22.5991 68.3494 23.062C68.5478 23.525 68.8171 23.9312 69.1572 24.2808C69.5068 24.6304 69.9131 24.9044 70.376 25.1028C70.8484 25.3012 71.3491 25.4004 71.8782 25.4004C72.2561 25.4004 72.6199 25.3484 72.9694 25.2445C73.319 25.1405 73.645 24.9941 73.9473 24.8051C74.2591 24.6067 74.5331 24.3705 74.7693 24.0966C75.0149 23.8131 75.2133 23.5013 75.3645 23.1612L78.1988 26.0098C77.8398 26.5199 77.4241 26.9782 76.9517 27.3844C76.4888 27.7907 75.9833 28.1355 75.4353 28.419C74.8968 28.7024 74.3252 28.915 73.7205 29.0567C73.1253 29.2079 72.5112 29.2834 71.8782 29.2834C70.8106 29.2834 69.8044 29.085 68.8596 28.6882C67.9243 28.282 67.1023 27.7293 66.3937 27.0301C65.6946 26.331 65.1419 25.5137 64.7356 24.5784C64.3294 23.6431 64.1262 22.6416 64.1262 21.574C64.1262 20.4119 64.3294 19.3254 64.7356 18.3145C65.1419 17.3035 65.6946 16.4249 66.3937 15.6785C67.1023 14.9227 67.9243 14.3275 68.8596 13.8929C69.8044 13.4583 70.8106 13.241 71.8782 13.241C72.5112 13.241 73.1301 13.3213 73.7347 13.4819C74.3488 13.6425 74.9299 13.8787 75.4778 14.1905C76.0353 14.4928 76.5455 14.866 77.0084 15.31C77.4808 15.7541 77.887 16.2643 78.2272 16.8406ZM93.9868 21.2764C93.9868 22.4101 93.7836 23.4683 93.3774 24.4509C92.9711 25.424 92.4184 26.2696 91.7193 26.9876C91.0201 27.6962 90.1982 28.2583 89.2534 28.674C88.3181 29.0803 87.3119 29.2834 86.2348 29.2834C85.1672 29.2834 84.161 29.0803 83.2162 28.674C82.2809 28.2583 81.4589 27.6962 80.7503 26.9876C80.0512 26.2696 79.4985 25.424 79.0922 24.4509C78.686 23.4683 78.4828 22.4101 78.4828 21.2764C78.4828 20.1237 78.686 19.0561 79.0922 18.0735C79.4985 17.091 80.0512 16.2454 80.7503 15.5368C81.4589 14.8188 82.2809 14.2566 83.2162 13.8504C84.161 13.4441 85.1672 13.241 86.2348 13.241C87.3119 13.241 88.3181 13.4346 89.2534 13.822C90.1982 14.1999 91.0201 14.7432 91.7193 15.4518C92.4184 16.1509 92.9711 16.9965 93.3774 17.9885C93.7836 18.9711 93.9868 20.067 93.9868 21.2764ZM90.0895 21.2764C90.0895 20.6528 89.9856 20.0907 89.7778 19.5899C89.5793 19.0797 89.3054 18.6451 88.9558 18.2861C88.6062 17.9177 88.1952 17.6389 87.7228 17.45C87.2599 17.2516 86.7639 17.1524 86.2348 17.1524C85.7057 17.1524 85.205 17.2516 84.7326 17.45C84.2696 17.6389 83.8634 17.9177 83.5138 18.2861C83.1737 18.6451 82.9044 19.0797 82.706 19.5899C82.5076 20.0907 82.4084 20.6528 82.4084 21.2764C82.4084 21.8621 82.5076 22.4054 82.706 22.9061C82.9044 23.4069 83.1737 23.8415 83.5138 24.2099C83.8634 24.5784 84.2696 24.8713 84.7326 25.0886C85.205 25.2964 85.7057 25.4004 86.2348 25.4004C86.7639 25.4004 87.2599 25.3012 87.7228 25.1028C88.1952 24.9044 88.6062 24.6256 88.9558 24.2666C89.3054 23.9076 89.5793 23.473 89.7778 22.9628C89.9856 22.4526 90.0895 21.8905 90.0895 21.2764ZM114.848 29H110.993V19.3632C110.993 19.0986 110.942 18.8483 110.838 18.6121C110.743 18.3759 110.606 18.168 110.427 17.9885C110.247 17.809 110.039 17.672 109.803 17.5775C109.567 17.4736 109.316 17.4216 109.052 17.4216C108.787 17.4216 108.537 17.4736 108.301 17.5775C108.074 17.672 107.871 17.809 107.691 17.9885C107.521 18.168 107.384 18.3759 107.28 18.6121C107.186 18.8483 107.139 19.0986 107.139 19.3632V29H103.27V19.3632C103.27 19.0986 103.218 18.8483 103.114 18.6121C103.019 18.3759 102.883 18.168 102.703 17.9885C102.523 17.809 102.316 17.672 102.079 17.5775C101.843 17.4736 101.593 17.4216 101.328 17.4216C101.064 17.4216 100.813 17.4736 100.577 17.5775C100.35 17.672 100.147 17.809 99.9678 17.9885C99.7978 18.168 99.6608 18.3759 99.5569 18.6121C99.4624 18.8483 99.4151 19.0986 99.4151 19.3632V29H95.5462V13.822H96.4816L97.5303 14.9841C98.0688 14.5306 98.6593 14.181 99.3018 13.9354C99.9537 13.6803 100.629 13.5527 101.328 13.5527C102.037 13.5527 102.727 13.685 103.397 13.9496C104.078 14.2141 104.673 14.6723 105.183 15.3242C105.419 15.003 105.689 14.729 105.991 14.5023C106.293 14.2755 106.61 14.0913 106.94 13.9496C107.28 13.8078 107.63 13.7086 107.989 13.6519C108.348 13.5858 108.702 13.5527 109.052 13.5527C109.855 13.5527 110.606 13.7039 111.305 14.0062C112.014 14.3086 112.628 14.7243 113.148 15.2534C113.677 15.773 114.092 16.3871 114.395 17.0957C114.697 17.8043 114.848 18.5601 114.848 19.3632V29ZM132.181 21.2764C132.181 22.4668 131.978 23.5533 131.572 24.5359C131.165 25.5185 130.613 26.364 129.913 27.0726C129.214 27.7718 128.392 28.315 127.448 28.7024C126.512 29.0898 125.506 29.2834 124.429 29.2834C123.361 29.2834 122.355 29.085 121.41 28.6882C120.475 28.2914 119.653 27.7387 118.944 27.0301C118.245 26.3215 117.693 25.4807 117.286 24.5075C116.88 23.525 116.677 22.4479 116.677 21.2764V7.78482H120.56V14.8707C120.768 14.6062 121.018 14.37 121.311 14.1621C121.613 13.9543 121.935 13.7842 122.275 13.6519C122.624 13.5197 122.983 13.4205 123.352 13.3543C123.72 13.2788 124.079 13.241 124.429 13.241C125.506 13.241 126.512 13.4441 127.448 13.8504C128.392 14.2472 129.214 14.8046 129.913 15.5226C130.613 16.2407 131.165 17.091 131.572 18.0735C131.978 19.0467 132.181 20.1143 132.181 21.2764ZM128.284 21.2764C128.284 20.6906 128.18 20.1474 127.972 19.6466C127.773 19.1364 127.499 18.6971 127.15 18.3286C126.8 17.9602 126.389 17.672 125.917 17.4642C125.454 17.2563 124.958 17.1524 124.429 17.1524C123.9 17.1524 123.399 17.2705 122.927 17.5067C122.464 17.7334 122.058 18.0405 121.708 18.4278C121.358 18.8058 121.084 19.2451 120.886 19.7458C120.688 20.2371 120.588 20.7473 120.588 21.2764C120.588 21.8621 120.688 22.4054 120.886 22.9061C121.084 23.4069 121.358 23.8415 121.708 24.2099C122.058 24.5784 122.464 24.8713 122.927 25.0886C123.399 25.2964 123.9 25.4004 124.429 25.4004C124.958 25.4004 125.454 25.2964 125.917 25.0886C126.389 24.8713 126.8 24.5784 127.15 24.2099C127.499 23.8415 127.773 23.4069 127.972 22.9061C128.18 22.4054 128.284 21.8621 128.284 21.2764Z" fill="#100E0E"/>
<g clip-path="url(#clip0_756_3495)">
<path d="M28.8011 2.23796L17.876 0.260891C14.5645 -0.336576 11.357 0.108808 8.69687 1.36892C8.32467 1.54273 7.96342 1.73283 7.61858 1.94466C5.06792 3.58498 5.16644 6.14866 7.56932 6.49627C11.6088 7.07745 15.6373 7.57715 19.6275 8.26152L23.5575 8.97305C23.9297 9.03279 24.3895 9.18488 24.7507 9.40214C27.1427 10.7057 27.1153 14.41 24.685 15.6864C23.3988 16.3925 22.0906 17.0334 20.755 17.6526C20.2132 17.9188 19.6768 18.1903 19.1513 18.4782C17.5913 19.2875 16.0642 20.162 14.5207 21.0093C18.6204 22.3726 22.7091 23.8391 26.7212 25.4794L26.9237 25.5663C28.5439 26.2724 30.4322 25.4414 30.9905 23.7685L32.5122 19.1952C32.8296 18.2501 32.1509 17.2615 31.1493 17.2072L29.6003 17.1203L32.7202 7.75096C33.5138 5.37738 31.6474 2.75939 28.8011 2.2434V2.23796Z" fill="#FF5114"/>
<path d="M25.3364 27.2771C21.297 26.6959 17.2684 26.1962 13.2782 25.5118L9.34824 24.8003C8.97604 24.7406 8.51627 24.5885 8.15502 24.3712C5.76308 23.0676 5.79045 19.3634 8.2207 18.0869C9.50698 17.3808 10.8152 16.7399 12.1507 16.1207C12.6926 15.8546 13.229 15.583 13.7544 15.2951C15.3144 14.4859 16.8415 13.6114 18.385 12.7641C14.2854 11.4007 10.1966 9.93424 6.18455 8.29392L5.98203 8.20701C4.36186 7.50092 2.4735 8.33194 1.9152 10.0048L0.393556 14.5836C0.0760911 15.5287 0.754808 16.5172 1.75646 16.5716L3.30547 16.6585L0.185562 26.0278C-0.6081 28.4014 1.25837 31.0194 4.10461 31.5354L15.0298 33.5125C18.3412 34.1099 21.5487 33.6645 24.2089 32.4044C24.5811 32.2306 24.9423 32.0405 25.2872 31.8287C27.8378 30.1884 27.7393 27.6247 25.3364 27.2771Z" fill="#F43107"/>
</g>
<defs>
<clipPath id="clip0_756_3495">
<rect width="32.9014" height="33.7732" fill="white"/>
</clipPath>
</defs>
</svg>
